<svg width="38" height="26" viewBox="0 0 38 26" fill="none" xmlns="http://www.w3.org/2000/svg">
<path d="M35.2784 0H2.36269C1.09017 0 0.0585938 1.03158 0.0585938 2.3041V23.3701C0.0585938 24.6426 1.09017 25.6742 2.36269 25.6742H35.2784C36.5509 25.6742 37.5825 24.6426 37.5825 23.3701V2.3041C37.5825 1.03158 36.5509 0 35.2784 0Z" fill="#006FCF"/>
<path fill-rule="evenodd" clip-rule="evenodd" d="M7.53616 18.6921V13.2712H13.6741L14.3326 14.074L15.0129 13.2712H37.2919V18.3182C37.2919 18.3182 36.7093 18.6867 36.0355 18.6921H23.6991L22.9566 17.8376V18.6921H20.5236V17.2334C20.5236 17.2334 20.1912 17.437 19.4728 17.437H18.6446V18.6921H14.9608L14.3032 17.8721L13.6356 18.6921H7.53616ZM0.384766 9.18552L1.76574 6.16797H4.154L4.93773 7.85829V6.16797H7.90652L8.37313 7.38964L8.8254 6.16797H22.1524V6.78215C22.1524 6.78215 22.8529 6.16797 24.0043 6.16797L28.3285 6.18214L29.0986 7.85033V6.16797H31.5831L32.2669 7.12618V6.16797H34.7741V11.5889H32.2669L31.6116 10.6276V11.5889H27.9614L27.5942 10.7343H26.613L26.2519 11.5889H23.7764C22.7857 11.5889 22.1524 10.9872 22.1524 10.9872V11.5889H18.42L17.6792 10.7343V11.5889H3.8002L3.43337 10.7343H2.45519L2.09096 11.5889H0.384766V9.18552ZM0.391889 10.8952L2.25453 6.83626H3.66664L5.5275 10.8952H4.28812L3.94622 10.0825H1.94825L1.60456 10.8952H0.391889ZM3.55268 9.20125L2.94367 7.78088L2.33288 9.20125H3.55268ZM5.65572 10.8946V6.83554L7.37902 6.84159L8.3813 9.45852L9.35962 6.83554H11.0691V10.8946H9.98646V7.90372L8.83876 10.8946H7.88927L6.73841 7.90372V10.8946H5.65572ZM11.8099 10.8946V6.83554H15.3429V7.74348H12.904V8.43781H15.2859V9.2923H12.904V10.0133H15.3429V10.8946H11.8099ZM15.9697 10.8952V6.83626H18.379C19.1773 6.83626 19.8926 7.29892 19.8926 8.15309C19.8926 8.88329 19.2896 9.35359 18.7049 9.3998L20.1295 10.8952H18.8064L17.5082 9.45326H17.0523V10.8952H15.9697ZM18.29 7.74421H17.0523V8.5987H18.306C18.523 8.5987 18.8028 8.4411 18.8028 8.17145C18.8028 7.96185 18.5869 7.74421 18.29 7.74421ZM21.4401 10.8946H20.3346V6.83554H21.4401V10.8946ZM24.0613 10.8946H23.8227C22.6681 10.8946 21.9672 10.0421 21.9672 8.88177C21.9672 7.69279 22.6603 6.83554 24.1183 6.83554H25.315V7.79694H24.0746C23.4827 7.79694 23.0641 8.22985 23.0641 8.89178C23.0641 9.67787 23.5427 10.008 24.2322 10.008H24.5172L24.0613 10.8946ZM24.5545 10.8952L26.4172 6.83626H27.8293L29.6902 10.8952H28.4508L28.1089 10.0825H26.1109L25.7672 10.8952H24.5545ZM27.7154 9.20125L27.1064 7.78088L26.4956 9.20125H27.7154ZM29.8166 10.8946V6.83554H31.1931L32.9507 9.38578V6.83554H34.0334V10.8946H32.7014L30.8993 8.27757V10.8946H29.8166ZM8.27696 17.9978V13.9388H11.8099V14.8468H9.37101V15.5411H11.7529V16.3956H9.37101V17.1166H11.8099V17.9978H8.27696ZM25.5885 17.9978V13.9388H29.1214V14.8468H26.6825V15.5411H29.0531V16.3956H26.6825V17.1166H29.1214V17.9978H25.5885ZM11.9471 17.9978L13.6672 15.9933L11.906 13.9388H13.2701L14.319 15.2089L15.3713 13.9388H16.682L14.944 15.9683L16.6674 17.9978H15.3035L14.2851 16.7478L13.2915 17.9978H11.9471ZM16.7959 17.9985V13.9395H19.1874C20.1687 13.9395 20.7421 14.5323 20.7421 15.3047C20.7421 16.2372 20.0111 16.7167 19.0468 16.7167H17.9071V17.9985H16.7959ZM19.1073 14.8574H17.9071V15.7921H19.1038C19.42 15.7921 19.6416 15.5956 19.6416 15.3248C19.6416 15.0364 19.4188 14.8574 19.1073 14.8574ZM21.2122 17.9978V13.9388H23.6214C24.4198 13.9388 25.1351 14.4015 25.1351 15.2556C25.1351 15.9858 24.532 16.4561 23.9473 16.5024L25.3719 17.9978H24.0488L22.7507 16.5558H22.2948V17.9978H21.2122ZM23.5324 14.8468H22.2948V15.7012H23.5484C23.7655 15.7012 24.0453 15.5437 24.0453 15.274C24.0453 15.0644 23.8293 14.8468 23.5324 14.8468ZM29.6229 17.9978V17.1166H31.7897C32.1103 17.1166 32.2491 16.9542 32.2491 16.7761C32.2491 16.6055 32.1107 16.433 31.7897 16.433H30.8105C29.9594 16.433 29.4854 15.9469 29.4854 15.2172C29.4854 14.5664 29.9195 13.9388 31.1842 13.9388H33.2926L32.8367 14.8521H31.0133C30.6647 14.8521 30.5574 15.0235 30.5574 15.1872C30.5574 15.3555 30.69 15.5411 30.9563 15.5411H31.982C32.9307 15.5411 33.3424 16.0455 33.3424 16.706C33.3424 17.4161 32.8837 17.9978 31.9304 17.9978H29.6229ZM33.4379 17.9978V17.1166H35.6047C35.9253 17.1166 36.0641 16.9542 36.0641 16.7761C36.0641 16.6055 35.9257 16.433 35.6047 16.433H34.6256C33.7744 16.433 33.3004 15.9469 33.3004 15.2172C33.3004 14.5664 33.7345 13.9388 34.9993 13.9388H37.1077L36.6518 14.8521H34.8283C34.4797 14.8521 34.3724 15.0235 34.3724 15.1872C34.3724 15.3555 34.505 15.5411 34.7713 15.5411H35.797C36.7458 15.5411 37.1575 16.0455 37.1575 16.706C37.1575 17.4161 36.6987 17.9978 35.7453 17.9978H33.4379Z" fill="white"/>
</svg>
