<svg width="42" height="26" viewBox="0 0 42 26" fill="none" xmlns="http://www.w3.org/2000/svg">
<path d="M39.6426 0H2.78263C1.56727 0 0.582031 0.98524 0.582031 2.20059V23.7114C0.582031 24.9268 1.56727 25.912 2.78263 25.912H39.6426C40.8579 25.912 41.8432 24.9268 41.8432 23.7114V2.20059C41.8432 0.98524 40.8579 0 39.6426 0Z" fill="#0E4595"/>
<path d="M24.4598 12.9574C24.4598 18.4117 20.0382 22.8328 14.5842 22.8328C9.13012 22.8328 4.70898 18.4117 4.70898 12.9574C4.70898 7.50362 9.13012 3.08203 14.5842 3.08203C20.0382 3.08203 24.4598 7.50362 24.4598 12.9574Z" fill="#D9222A"/>
<path d="M27.8408 3.08203C25.2892 3.08203 22.9642 4.05006 21.2115 5.63839C20.8546 5.96206 20.5213 6.31163 20.2143 6.68344H22.2095C22.4823 7.01514 22.7336 7.36402 22.9623 7.72941H19.4616C19.2518 8.06523 19.0613 8.41412 18.8926 8.77515H23.531C23.6894 9.11395 23.8293 9.46261 23.9492 9.82066H18.4745C18.3603 10.1613 18.2643 10.51 18.1875 10.8664H24.2359C24.381 11.5403 24.4583 12.2399 24.4583 12.9574C24.4583 14.0541 24.2793 15.1092 23.9492 16.0944H18.4745C18.5942 16.4527 18.734 16.8016 18.8924 17.1402H23.531C23.3619 17.5012 23.1718 17.8501 22.9619 18.1861H19.4616C19.6901 18.5508 19.9418 18.9002 20.2143 19.2312H22.2091C21.9026 19.6037 21.5691 19.9537 21.2117 20.2772C22.9644 21.8652 25.2892 22.8328 27.8408 22.8328C33.2948 22.8328 37.7164 18.4117 37.7164 12.9574C37.7164 7.50385 33.2948 3.08203 27.8408 3.08203Z" fill="#EE9F2D"/>
<path d="M36.4004 18.4597C36.4004 18.2837 36.543 18.1406 36.7192 18.1406C36.8955 18.1406 37.0381 18.2837 37.0381 18.4597C37.0381 18.6358 36.8955 18.7788 36.7192 18.7788C36.543 18.7788 36.4004 18.6358 36.4004 18.4597ZM36.7192 18.7022C36.8531 18.7022 36.9618 18.5936 36.9618 18.4597C36.9618 18.3256 36.8531 18.2174 36.7192 18.2174C36.5851 18.2174 36.477 18.3256 36.477 18.4597C36.477 18.5936 36.5851 18.7022 36.7192 18.7022ZM36.6762 18.6H36.6108V18.3197H36.7291C36.7539 18.3197 36.7791 18.3197 36.8009 18.3336C36.8235 18.349 36.8364 18.376 36.8364 18.404C36.8364 18.4354 36.8178 18.4648 36.7878 18.4762L36.8394 18.6H36.7669L36.7241 18.4891H36.6762V18.6ZM36.6762 18.4409H36.7124C36.7259 18.4409 36.7401 18.4421 36.7523 18.4354C36.763 18.4285 36.7685 18.4157 36.7685 18.4033C36.7685 18.3925 36.7619 18.3802 36.7527 18.3749C36.7413 18.3678 36.7231 18.3694 36.711 18.3694H36.6762V18.4409Z" fill="#0E4595"/>
<path d="M12.2774 14.0371C12.1648 14.024 12.1153 14.0206 12.038 14.0206C11.4304 14.0206 11.1227 14.229 11.1227 14.6404C11.1227 14.8942 11.2729 15.0556 11.5072 15.0556C11.9438 15.0556 12.2586 14.6397 12.2774 14.0371ZM13.057 15.8524H12.1687L12.1891 15.4301C11.9182 15.7639 11.5567 15.9225 11.0654 15.9225C10.4843 15.9225 10.0859 15.4686 10.0859 14.8096C10.0859 13.818 10.7789 13.2394 11.9684 13.2394C12.0899 13.2394 12.2457 13.2504 12.4053 13.2708C12.4385 13.1365 12.4472 13.0789 12.4472 13.0067C12.4472 12.7367 12.2604 12.636 11.7595 12.636C11.2351 12.6301 10.8025 12.761 10.6249 12.8194C10.6361 12.7518 10.7734 11.903 10.7734 11.903C11.3077 11.7464 11.6601 11.6875 12.0566 11.6875C12.9772 11.6875 13.4648 12.1008 13.4638 12.882C13.4657 13.0913 13.4311 13.3496 13.377 13.6891C13.2839 14.2794 13.0842 15.544 13.057 15.8524Z" fill="#0E4595"/>
<path d="M9.63707 15.8531H8.56497L9.17907 12.0023L7.80783 15.8531H7.07728L6.98696 12.0243L6.34145 15.8531H5.33789L6.17618 10.8438H7.71774L7.81127 13.6477L8.75156 10.8438H10.4662L9.63707 15.8531Z" fill="#0E4595"/>
<path d="M29.1671 14.0371C29.055 14.024 29.0052 14.0206 28.9282 14.0206C28.3208 14.0206 28.0131 14.229 28.0131 14.6404C28.0131 14.8942 28.1631 15.0556 28.3973 15.0556C28.834 15.0556 29.149 14.6397 29.1671 14.0371ZM29.9474 15.8524H29.0591L29.0793 15.4301C28.8083 15.7639 28.4466 15.9225 27.9558 15.9225C27.3745 15.9225 26.9766 15.4686 26.9766 14.8096C26.9766 13.818 27.6691 13.2394 28.8588 13.2394C28.9802 13.2394 29.1359 13.2504 29.2952 13.2708C29.3284 13.1365 29.3372 13.0789 29.3372 13.0067C29.3372 12.7367 29.1506 12.636 28.6497 12.636C28.1252 12.6301 27.6931 12.761 27.5148 12.8194C27.526 12.7518 27.6638 11.903 27.6638 11.903C28.1981 11.7464 28.5502 11.6875 28.9463 11.6875C29.8674 11.6875 30.3549 12.1008 30.354 12.882C30.3559 13.0913 30.3212 13.3496 30.2671 13.6891C30.1745 14.2794 29.9744 15.544 29.9474 15.8524Z" fill="#0E4595"/>
<path d="M17.8211 15.7926C17.5276 15.885 17.2989 15.9247 17.0508 15.9247C16.5028 15.9247 16.2036 15.6097 16.2036 15.0298C16.1958 14.8498 16.2825 14.3762 16.3506 13.9439C16.4124 13.5634 16.8154 11.1641 16.8154 11.1641H17.8811L17.7566 11.7807H18.4003L18.255 12.7597H17.609C17.4852 13.5345 17.309 14.4996 17.3069 14.6275C17.3069 14.8375 17.419 14.9291 17.6739 14.9291C17.7961 14.9291 17.8907 14.9168 17.9629 14.8906L17.8211 15.7926Z" fill="#0E4595"/>
<path d="M21.0901 15.7575C20.724 15.8693 20.3708 15.9234 19.9964 15.9225C18.8035 15.9214 18.1816 15.2983 18.1816 14.1052C18.1816 12.7126 18.9727 11.6875 20.0466 11.6875C20.9253 11.6875 21.4864 12.2615 21.4864 13.1617C21.4864 13.4604 21.4479 13.7519 21.3551 14.1636H19.2329C19.1611 14.7546 19.5394 15.0008 20.1592 15.0008C20.5406 15.0008 20.8847 14.9221 21.2673 14.7443L21.0901 15.7575ZM20.4911 13.3423C20.4971 13.2575 20.6041 12.6152 19.9953 12.6152C19.6558 12.6152 19.4131 12.874 19.3143 13.3423H20.4911Z" fill="#0E4595"/>
<path d="M13.7007 13.0663C13.7007 13.5816 13.9505 13.9369 14.5172 14.2037C14.9513 14.4078 15.0185 14.4683 15.0185 14.6533C15.0185 14.9072 14.8271 15.0219 14.4028 15.0219C14.083 15.0219 13.7855 14.9719 13.4423 14.8612C13.4423 14.8612 13.3013 15.7591 13.2949 15.8019C13.5386 15.8551 13.7559 15.9044 14.4106 15.9225C15.5418 15.9225 16.0642 15.4918 16.0642 14.5609C16.0642 14.0011 15.8455 13.6726 15.3085 13.4257C14.8589 13.2194 14.8074 13.1734 14.8074 12.9831C14.8074 12.7628 14.9855 12.6505 15.3321 12.6505C15.5425 12.6505 15.83 12.673 16.1023 12.7117L16.255 11.7668C15.9774 11.7228 15.5565 11.6875 15.3114 11.6875C14.1121 11.6875 13.697 12.314 13.7007 13.0663Z" fill="#0E4595"/>
<path d="M26.3031 11.7948C26.6009 11.7948 26.8785 11.873 27.261 12.0655L27.4364 10.9783C27.2794 10.9166 26.7265 10.5547 26.2582 10.5547C25.5407 10.5547 24.9341 10.9107 24.5075 11.4982C23.8854 11.2921 23.6296 11.7086 23.316 12.1235L23.0375 12.1884C23.0586 12.0518 23.0776 11.9161 23.0712 11.7788H22.0867C21.9521 13.0395 21.7137 14.3166 21.5271 15.5789L21.4785 15.8526H22.5511C22.7301 14.6895 22.8282 13.9447 22.8878 13.4407L23.2917 13.216C23.352 12.9916 23.5409 12.9157 23.9198 12.9249C23.8703 13.1908 23.8437 13.4705 23.8437 13.7602C23.8437 15.093 24.5628 15.9228 25.717 15.9228C26.0143 15.9228 26.2694 15.8836 26.6644 15.7765L26.853 14.6345C26.4977 14.8094 26.2061 14.8917 25.9421 14.8917C25.3188 14.8917 24.9417 14.4316 24.9417 13.6713C24.9417 12.5682 25.5026 11.7948 26.3031 11.7948Z" fill="#0E4595"/>
<path d="M9.94567 15.5555H8.87333L9.4879 11.7052L8.11665 15.5555H7.38587L7.29555 11.7272L6.65005 15.5555H5.64648L6.48477 10.5469H8.02634L8.06966 13.6477L9.10967 10.5469H10.7748L9.94567 15.5555Z" fill="#FDFDFD"/>
<path d="M35.3805 10.8438L35.1428 12.2911C34.8496 11.9053 34.5346 11.6261 34.1188 11.6261C33.5778 11.6261 33.0855 12.0362 32.7632 12.6398C32.3143 12.5467 31.8501 12.3888 31.8501 12.3888L31.8499 12.3924C31.8861 12.055 31.9006 11.8491 31.8974 11.7792H30.9126C30.7785 13.04 30.5401 14.317 30.3537 15.5794L30.3047 15.8531H31.377C31.5219 14.9126 31.6328 14.1316 31.7144 13.5122C32.0808 13.1812 32.2641 12.8924 32.6343 12.9116C32.4704 13.308 32.3744 13.7646 32.3744 14.2329C32.3744 15.2514 32.8897 15.9232 33.6691 15.9232C34.062 15.9232 34.3634 15.7878 34.6575 15.4737L34.6073 15.8524H35.6214L36.4379 10.8438H35.3805ZM34.0397 14.9116C33.6748 14.9116 33.4905 14.6416 33.4905 14.1087C33.4905 13.308 33.8355 12.7402 34.3219 12.7402C34.6903 12.7402 34.8897 13.021 34.8897 13.5383C34.8897 14.3459 34.5392 14.9116 34.0397 14.9116Z" fill="#0E4595"/>
<path d="M12.5855 13.7404C12.4732 13.7274 12.4234 13.7239 12.3464 13.7239C11.7387 13.7239 11.4313 13.9323 11.4313 14.3438C11.4313 14.5971 11.5815 14.7589 11.8153 14.7589C12.2524 14.7589 12.5672 14.3431 12.5855 13.7404ZM13.3656 15.555H12.4773L12.4975 15.1335C12.2268 15.4665 11.8648 15.6259 11.374 15.6259C10.7927 15.6259 10.3945 15.172 10.3945 14.5129C10.3945 13.5208 11.0873 12.9427 12.277 12.9427C12.3984 12.9427 12.5543 12.9537 12.7136 12.9741C12.7469 12.8398 12.7556 12.7823 12.7556 12.7096C12.7556 12.4396 12.569 12.3394 12.0681 12.3394C11.5434 12.3334 11.1111 12.4643 10.9332 12.5221C10.9445 12.4547 11.0818 11.6068 11.0818 11.6068C11.6159 11.4495 11.9686 11.3906 12.3648 11.3906C13.2856 11.3906 13.7734 11.8042 13.7724 12.5847C13.774 12.7949 13.7392 13.053 13.6853 13.392C13.5925 13.9821 13.3926 15.2474 13.3656 15.555Z" fill="#FDFDFD"/>
<path d="M27.7453 10.682L27.5697 11.7695C27.1873 11.5772 26.9095 11.4988 26.612 11.4988C25.8115 11.4988 25.2503 12.2722 25.2503 13.3753C25.2503 14.1356 25.6277 14.5954 26.2507 14.5954C26.5148 14.5954 26.8061 14.5134 27.1614 14.3382L26.9732 15.4798C26.578 15.5875 26.3231 15.6267 26.0256 15.6267C24.8717 15.6267 24.1523 14.7969 24.1523 13.4642C24.1523 11.6735 25.1458 10.4219 26.5668 10.4219C27.0349 10.4219 27.588 10.6204 27.7453 10.682Z" fill="#FDFDFD"/>
<path d="M29.4761 13.7404C29.3638 13.7274 29.3143 13.7239 29.237 13.7239C28.6296 13.7239 28.322 13.9323 28.322 14.3438C28.322 14.5971 28.4721 14.7589 28.7061 14.7589C29.1428 14.7589 29.4578 14.3431 29.4761 13.7404ZM30.2562 15.555H29.3677L29.3881 15.1335C29.1172 15.4665 28.7554 15.6259 28.2647 15.6259C27.6836 15.6259 27.2852 15.172 27.2852 14.5129C27.2852 13.5208 27.9781 12.9427 29.1674 12.9427C29.2891 12.9427 29.4447 12.9537 29.6043 12.9741C29.6373 12.8398 29.6462 12.7823 29.6462 12.7096C29.6462 12.4396 29.4596 12.3394 28.9588 12.3394C28.4343 12.3334 28.0017 12.4643 27.8238 12.5221C27.8351 12.4547 27.9726 11.6068 27.9726 11.6068C28.5067 11.4495 28.8593 11.3906 29.2554 11.3906C30.1764 11.3906 30.664 11.8042 30.6628 12.5847C30.6647 12.7949 30.6301 13.053 30.576 13.392C30.4834 13.9821 30.283 15.2474 30.2562 15.555Z" fill="#FDFDFD"/>
<path d="M18.1316 15.4955C17.8379 15.5879 17.6092 15.628 17.3614 15.628C16.8133 15.628 16.5141 15.3131 16.5141 14.7331C16.5066 14.5527 16.5932 14.0796 16.6613 13.6473C16.723 13.2663 17.1259 10.8672 17.1259 10.8672H18.1914L18.0672 11.484H18.6141L18.4685 12.4626H17.9198C17.796 13.2379 17.6192 14.2022 17.6174 14.3304C17.6174 14.541 17.7297 14.632 17.9844 14.632C18.1066 14.632 18.201 14.6201 18.2735 14.594L18.1316 15.4955Z" fill="#FDFDFD"/>
<path d="M21.3987 15.4608C21.0328 15.5727 20.6791 15.6265 20.305 15.6259C19.1121 15.6247 18.4902 15.0017 18.4902 13.8085C18.4902 12.4155 19.2813 11.3906 20.3552 11.3906C21.2339 11.3906 21.795 11.9644 21.795 12.865C21.795 13.1639 21.7565 13.4555 21.6639 13.867H19.5417C19.47 14.4579 19.8482 14.7044 20.468 14.7044C20.8492 14.7044 21.1935 14.6255 21.5759 14.4472L21.3987 15.4608ZM20.7995 13.045C20.8059 12.9604 20.9127 12.3179 20.3037 12.3179C19.9644 12.3179 19.7216 12.5773 19.6229 13.045H20.7995Z" fill="#FDFDFD"/>
<path d="M14.009 12.7697C14.009 13.285 14.2589 13.6398 14.8255 13.9071C15.2597 14.1111 15.3269 14.1719 15.3269 14.3566C15.3269 14.6106 15.1352 14.7252 14.7114 14.7252C14.3914 14.7252 14.0938 14.6752 13.7505 14.5645C13.7505 14.5645 13.6099 15.4624 13.6035 15.5053C13.8467 15.5585 14.0643 15.6071 14.7189 15.6259C15.8504 15.6259 16.3726 15.1951 16.3726 14.2645C16.3726 13.7045 16.1541 13.376 15.6168 13.1291C15.1675 12.9223 15.1155 12.8769 15.1155 12.6865C15.1155 12.4664 15.2941 12.3532 15.6404 12.3532C15.8506 12.3532 16.1381 12.3763 16.4109 12.415L16.5633 11.4699C16.2859 11.4259 15.8651 11.3906 15.62 11.3906C14.4205 11.3906 14.0056 12.0166 14.009 12.7697Z" fill="#FDFDFD"/>
<path d="M35.9304 15.5555H34.9161L34.9665 15.1764C34.6724 15.4909 34.3709 15.6264 33.978 15.6264C33.1987 15.6264 32.6836 14.9545 32.6836 13.936C32.6836 12.581 33.4825 11.4388 34.428 11.4388C34.8438 11.4388 35.1586 11.6087 35.4515 11.9942L35.6895 10.5469H36.7469L35.9304 15.5555ZM34.3489 14.6143C34.8482 14.6143 35.1989 14.0486 35.1989 13.2415C35.1989 12.7241 34.9993 12.4433 34.6309 12.4433C34.1447 12.4433 33.7992 13.0109 33.7992 13.8118C33.7992 14.3447 33.984 14.6143 34.3489 14.6143Z" fill="#FDFDFD"/>
<path d="M31.2214 11.4814C31.0871 12.7422 30.8487 14.0192 30.6623 15.2809L30.6133 15.5546H31.6856C32.0691 13.0638 32.162 12.5774 32.7632 12.6384C32.859 12.1286 33.0374 11.682 33.1703 11.4567C32.7213 11.3632 32.4705 11.6169 32.1422 12.099C32.1681 11.8906 32.2156 11.6882 32.2062 11.4814H31.2214Z" fill="#FDFDFD"/>
<path d="M22.3953 11.4814C22.2607 12.7422 22.0223 14.0192 21.8359 15.2809L21.7871 15.5546H22.8599C23.2429 13.0638 23.3355 12.5774 23.9366 12.6384C24.0329 12.1286 24.2112 11.682 24.3437 11.4567C23.8951 11.3632 23.6441 11.6169 23.3161 12.099C23.342 11.8906 23.389 11.6882 23.38 11.4814H22.3953Z" fill="#FDFDFD"/>
<path d="M36.4004 15.2371C36.4004 15.0603 36.5432 14.918 36.7192 14.918C36.8955 14.918 37.0381 15.0603 37.0381 15.2371C37.0381 15.4129 36.8955 15.5559 36.7192 15.5559C36.5432 15.5559 36.4004 15.4129 36.4004 15.2371ZM36.7192 15.4793C36.8533 15.4793 36.9615 15.3707 36.9615 15.2371C36.9615 15.1032 36.8533 14.9945 36.7192 14.9945C36.5854 14.9945 36.4767 15.1032 36.4767 15.2371C36.4767 15.3707 36.5854 15.4793 36.7192 15.4793ZM36.6762 15.3764H36.6108V15.0968H36.7293C36.7539 15.0968 36.7793 15.0972 36.8006 15.1107C36.8235 15.1263 36.8366 15.1529 36.8366 15.1809C36.8366 15.2125 36.818 15.2421 36.7878 15.2533L36.8396 15.3764H36.7669L36.7241 15.2659H36.6762V15.3764ZM36.6762 15.218H36.7121C36.7257 15.218 36.7403 15.2189 36.7523 15.2125C36.763 15.2057 36.7685 15.1926 36.7685 15.1802C36.7685 15.1699 36.7621 15.1575 36.7527 15.1513C36.7415 15.1449 36.7229 15.1467 36.7108 15.1467H36.6762V15.218Z" fill="#FDFDFD"/>
</svg>
