<svg width="41" height="26" viewBox="0 0 41 26" fill="none" xmlns="http://www.w3.org/2000/svg">
<path d="M2.89799 0H38.8471C39.9817 0 40.9014 0.919733 40.9014 2.05424V23.6237C40.9014 24.7583 39.9817 25.678 38.8471 25.678H2.89799C1.76348 25.678 0.84375 24.7583 0.84375 23.6237V2.05424C0.84375 0.919733 1.76348 0 2.89799 0Z" fill="#EBF6FF"/>
<path d="M26.1807 9.39357L16.7106 19.7272H13.2371C12.9959 19.7272 12.8029 19.486 12.8512 19.2448L15.1669 4.57892C15.2151 4.24122 15.5046 4 15.8423 4H21.7279C25.7803 4.14473 26.8899 6.21918 26.1663 9.40322L26.1807 9.39357Z" fill="#002C8A"/>
<path d="M26.3353 8.4375C27.7826 9.20939 28.1203 10.6567 27.6379 12.5864C27.0107 15.4327 25.1293 16.6388 22.3794 16.6871L21.6075 16.7353C21.3181 16.7353 21.1251 16.9283 21.0769 17.2177L20.4497 21.0289C20.4015 21.3666 20.112 21.6078 19.7743 21.6078H16.8797C16.6385 21.6078 16.4455 21.3666 16.4938 21.1254L17.5551 14.2267C17.6034 13.9854 26.3353 8.4375 26.3353 8.4375Z" fill="#009BE1"/>
<path d="M17.498 14.5677L18.4629 8.44083C18.4946 8.29573 18.5732 8.1651 18.6865 8.06917C18.7999 7.97324 18.9417 7.91735 19.0901 7.91016H23.7214C24.831 7.91016 25.6511 8.10313 26.3265 8.44083C26.0853 10.5635 25.0722 13.9888 20.1514 14.0853H18.0287C17.7875 14.0853 17.5463 14.2782 17.498 14.5677Z" fill="#001F6B"/>
</svg>
