<svg width="41" height="26" viewBox="0 0 41 26" fill="none" xmlns="http://www.w3.org/2000/svg">
<path d="M2.95658 0H38.9057C40.0403 0 40.96 0.919733 40.96 2.05424V23.6237C40.96 24.7583 40.0403 25.678 38.9057 25.678H2.95658C1.82208 25.678 0.902344 24.7583 0.902344 23.6237V2.05424C0.902344 0.919733 1.82208 0 2.95658 0Z" fill="#003663"/>
<path d="M19.7764 18.946C19.7764 18.7056 20.0309 18.5682 20.5671 18.5682C21.7599 18.5682 22.7653 19.4608 22.7653 19.4608V17.8129C22.1627 17.4022 21.4532 17.1846 20.7281 17.1882C19.0728 17.1882 18.49 18.2114 18.49 18.8909C18.49 20.7861 21.5858 20.3194 21.5858 21.0609C21.5858 21.3836 21.2105 21.459 20.8153 21.459C19.4413 21.459 18.5836 20.4634 18.5836 20.4634V22.3379C18.7979 22.5373 19.7764 22.9014 20.7014 22.9014C22.169 22.9014 23.0402 22.0497 23.0402 21.322C23.0402 19.3096 19.7764 19.6875 19.7764 18.946ZM12.5454 19.7563C12.5454 19.2277 12.4315 17.1882 10.1799 17.1882C9.09431 17.1882 8.32383 17.6483 8.10237 17.8129V19.4608C8.10237 19.4608 8.87997 18.5682 9.94526 18.5682C11.0109 18.5682 10.991 19.5569 10.991 19.5569C10.6962 19.5022 10.2604 19.4608 9.81138 19.4608C8.39077 19.4608 7.6267 20.3604 7.6267 21.3289C7.6267 22.4344 8.61187 22.9014 9.46282 22.9014C10.2536 22.9014 10.7428 22.4753 11.0045 21.8506H11.0579L11.0045 22.6403V22.7843H12.5657L12.5454 19.7563ZM9.91179 21.6653C9.42935 21.6653 9.09431 21.4181 9.09431 21.0334C9.09431 20.3057 10.2002 20.1135 10.897 20.2988C10.8436 21.3151 10.3811 21.6653 9.91179 21.6653ZM33.6617 19.7563C33.6617 19.2277 33.5478 17.1882 31.2962 17.1882C30.2106 17.1882 29.4401 17.6483 29.2187 17.8129V19.4608C29.2187 19.4608 29.9963 18.5682 31.0615 18.5682C32.1272 18.5682 32.1072 19.5569 32.1072 19.5569C31.8121 19.5022 31.3969 19.4608 30.9277 19.4608C29.507 19.4608 28.743 20.3604 28.743 21.3289C28.743 22.4344 29.7281 22.9014 30.5791 22.9014C31.3699 22.9014 31.8591 22.4753 32.1204 21.8506H32.1742L32.1204 22.6403V22.7843H33.682L33.6617 19.7563ZM31.0281 21.6653C30.5456 21.6653 30.2106 21.4181 30.2106 21.0334C30.2106 20.3057 31.3165 20.1135 32.0132 20.2988C31.9598 21.3151 31.4973 21.6653 31.0281 21.6653ZM14.8038 16.3985H13.6848C13.6848 16.8379 13.484 17.3666 12.7399 17.3666V18.3553H13.2024V21.219C13.2024 22.2284 13.6378 22.9014 14.5827 22.9014C15.1659 22.9014 15.6149 22.7092 15.8093 22.4547V21.0062C15.8093 21.0062 15.5882 21.3836 15.2663 21.3836C14.9245 21.3836 14.8038 21.1157 14.8038 20.7038V18.3553H15.7424V17.1878H14.8038V16.3985ZM4.18909 18.946C4.18909 18.7056 4.44366 18.5682 4.97951 18.5682C6.17225 18.5682 7.17772 19.4608 7.17772 19.4608V17.8129C6.5751 17.4022 5.86555 17.1846 5.14044 17.1882C3.48519 17.1882 2.90234 18.2114 2.90234 18.8909C2.90234 20.7861 5.99815 20.3194 5.99815 21.0609C5.99815 21.3836 5.62288 21.459 5.22767 21.459C3.85369 21.459 2.99598 20.4634 2.99598 20.4634V22.3379C3.21032 22.5373 4.18873 22.9014 5.11373 22.9014C6.58135 22.9014 7.45259 22.0497 7.45259 21.322C7.45259 19.3096 4.18909 19.6875 4.18909 18.946ZM17.2232 17.8129C17.7594 17.8129 18.1749 17.4079 18.1749 16.9065C18.1749 16.4054 17.7594 16 17.2232 16C16.687 16 16.2515 16.4123 16.2515 16.9065C16.2515 17.401 16.6734 17.8129 17.2232 17.8129ZM18.0474 22.7843V18.0809C18.0474 18.0809 17.7259 18.2386 17.2232 18.2386C16.7204 18.2386 16.3922 18.0809 16.3922 18.0809V22.7843H18.0474ZM37.1467 17.3049H37.1666C36.6173 19.6396 36.2954 20.8481 36.2352 21.1639C36.2149 20.8481 35.7727 19.6396 35.2301 17.3049H33.4944L34.8481 21.4181C34.9552 21.7132 35.1966 22.0772 35.7595 22.0772C36.2149 22.0772 36.483 21.8299 36.6304 21.6929H36.6575C36.5233 22.0566 36.1815 22.5649 35.3974 22.5649C34.8481 22.5649 34.2649 22.2966 34.2649 22.2966V23.7596C34.2649 23.7596 34.6736 24 35.3974 24C35.9201 24 36.7244 23.8006 37.3678 22.1117C37.4148 22.029 38.9023 17.3049 38.9023 17.3049H37.1467ZM26.5451 17.1882C25.848 17.1882 25.3524 17.5036 25.0237 18.2524L24.9835 18.2386L25.0572 17.3049H23.4155V23.8832H24.997V22.0149L25.0437 22.0011C25.3249 22.5573 25.848 22.901 26.5448 22.901C27.9924 22.901 28.6693 21.3147 28.6693 20.0305C28.6693 18.6436 27.9924 17.1882 26.5451 17.1882ZM26.0288 21.2672C25.446 21.2672 24.8493 20.9097 24.8493 20.017C24.8493 19.1244 25.446 18.7607 26.0288 18.7607C26.6121 18.7607 27.2618 19.1244 27.2618 20.017C27.2618 20.9097 26.6188 21.2672 26.0288 21.2672Z" fill="#FF3D00"/>
<path fill-rule="evenodd" clip-rule="evenodd" d="M16.3589 2.00065H20.6027L26.3712 7.28092C26.7059 7.5872 26.9023 8.01776 26.9023 8.46545C26.9031 8.6859 26.8585 8.90427 26.771 9.1077C26.6836 9.31113 26.5552 9.49551 26.3934 9.64998L20.6164 14.9911H16.3452C16.3096 14.9913 16.2748 14.981 16.2454 14.9616C16.2159 14.9422 16.1932 14.9146 16.1802 14.8824C16.1672 14.8503 16.1646 14.815 16.1726 14.7813C16.1806 14.7476 16.1989 14.7171 16.2252 14.6937L22.9653 8.62968C22.9853 8.61047 23.0011 8.58755 23.0119 8.56228C23.0227 8.53702 23.0281 8.50991 23.0279 8.48257C23.0265 8.42731 23.0026 8.37485 22.9614 8.33672L16.2382 2.29742C16.1182 2.19405 16.1984 2.00065 16.3589 2.00065ZM14.4198 9.64554C14.2562 9.49016 14.1262 9.30464 14.0374 9.09982C13.9485 8.89501 13.9026 8.67503 13.9023 8.45277C13.9023 8.00445 14.0981 7.57388 14.4328 7.26824L17.5314 4.41663L19.8582 6.51872L17.8387 8.3196C17.8189 8.33865 17.8031 8.36136 17.7923 8.3864C17.7816 8.41144 17.7761 8.43831 17.7761 8.46545C17.7761 8.52189 17.8029 8.57325 17.8433 8.61193L19.8856 10.4471L17.5582 12.5491L14.4198 9.64554ZM21.6505 15H24.4901C24.6506 15 24.7315 14.806 24.6108 14.7026L23.2778 13.501L21.6505 15ZM24.5886 2.29742L23.2687 3.4775L21.646 2.00002H24.4679C24.5037 1.99955 24.5388 2.00968 24.5685 2.02905C24.5982 2.04843 24.6211 2.07615 24.6342 2.1085C24.6473 2.14086 24.65 2.17633 24.6419 2.21019C24.6337 2.24405 24.6152 2.27406 24.5886 2.29742Z" fill="#FF3D00"/>
</svg>
