<svg width="62" height="40" viewBox="0 0 62 40" fill="none" xmlns="http://www.w3.org/2000/svg">
<path d="M3.75741 0H58.6429C60.3751 0 61.7792 1.40421 61.7792 3.13631V36.0676C61.7792 37.7998 60.3751 39.2039 58.6429 39.2039H3.75741C2.0253 39.2039 0.621094 37.7998 0.621094 36.0676V3.13631C0.621094 1.40421 2.0253 0 3.75741 0Z" fill="#0E4595"/>
<path d="M23.6265 27.3582L26.2422 12.0091H30.4261L27.8084 27.3582H23.6265ZM42.9234 12.34C42.0947 12.029 40.7957 11.6953 39.1738 11.6953C35.0398 11.6953 32.1277 13.777 32.103 16.7607C32.0795 18.9663 34.1819 20.1967 35.7687 20.9309C37.3973 21.6832 37.9447 22.163 37.937 22.8349C37.9267 23.8637 36.6365 24.3337 35.4341 24.3337C33.7595 24.3337 32.8699 24.1011 31.4959 23.528L30.9567 23.2841L30.3695 26.7202C31.3467 27.1486 33.1538 27.5198 35.03 27.539C39.4279 27.539 42.2827 25.4811 42.3153 22.295C42.3309 20.5489 41.2163 19.2201 38.8025 18.1246C37.3402 17.4146 36.4447 16.9407 36.4542 16.2218C36.4542 15.5838 37.2122 14.9015 38.8501 14.9015C40.2182 14.8803 41.2094 15.1787 41.9815 15.4895L42.3564 15.6667L42.9234 12.34ZM53.6896 12.0089H50.4567C49.4552 12.0089 48.7057 12.2823 48.2659 13.2817L42.0526 27.3481H46.4458C46.4458 27.3481 47.164 25.4567 47.3265 25.0415C47.8068 25.0415 52.0745 25.0481 52.6847 25.0481C52.8099 25.5854 53.1936 27.3481 53.1936 27.3481H57.0759L53.6896 12.0084V12.0089ZM48.5603 21.9204C48.9063 21.036 50.2273 17.6297 50.2273 17.6297C50.2025 17.6706 50.5706 16.741 50.7819 16.1647L51.0646 17.4882C51.0646 17.4882 51.8658 21.1521 52.0332 21.9204H48.5603ZM20.0748 12.0089L15.9787 22.4763L15.5422 20.3491C14.7797 17.8971 12.404 15.2404 9.74805 13.9104L13.4933 27.3338L17.9199 27.3288L24.5064 12.0087H20.0748" fill="#FDFDFD"/>
<path d="M12.1591 12.012H5.41277L5.35938 12.3314C10.6078 13.6019 14.0807 16.6723 15.5226 20.3611L14.0556 13.3076C13.8023 12.3357 13.0679 12.0457 12.1592 12.0117" fill="#F2AE14"/>
</svg>
