<svg width="15" height="14" viewBox="0 0 15 14" fill="none" xmlns="http://www.w3.org/2000/svg">
<path d="M12.8414 9.78223H3.93614L5.81316 0.232717C5.8195 0.200468 5.81271 0.169834 5.81265 0.138184H4.8325H1.22891C0.95823 0.138184 0.73877 0.357644 0.73877 0.62832C0.73877 0.898995 0.95823 1.11846 1.22891 1.11846H4.63981L2.85918 10.1778C2.83094 10.3217 2.86852 10.4705 2.96161 10.5837C3.05471 10.6969 3.19376 10.7625 3.34022 10.7625H12.8414C13.1121 10.7625 13.3315 10.543 13.3315 10.2724C13.3315 10.0017 13.1121 9.78223 12.8414 9.78223Z" fill="white"/>
<path d="M9.62285 13.8619C10.1642 13.8619 10.6031 13.423 10.6031 12.8816C10.6031 12.3402 10.1642 11.9014 9.62285 11.9014C9.08146 11.9014 8.64258 12.3402 8.64258 12.8816C8.64258 13.423 9.08146 13.8619 9.62285 13.8619Z" fill="white"/>
<path d="M5.98564 13.8619C6.52703 13.8619 6.96592 13.423 6.96592 12.8816C6.96592 12.3402 6.52703 11.9014 5.98564 11.9014C5.44425 11.9014 5.00537 12.3402 5.00537 12.8816C5.00537 13.423 5.44425 13.8619 5.98564 13.8619Z" fill="white"/>
<path d="M5.33211 0.138184L3.9834 7.00009H11.5382L14.9527 0.138184H5.33211ZM10.3582 4.05927H9.50042V4.91701C9.50042 5.18769 9.2812 5.40715 9.01028 5.40715C8.73937 5.40715 8.52015 5.18769 8.52015 4.91701V4.05927H7.66241C7.3915 4.05927 7.17227 3.83981 7.17227 3.56914C7.17227 3.29846 7.3915 3.079 7.66241 3.079H8.52015V2.22126C8.52015 1.95059 8.73937 1.73113 9.01028 1.73113C9.2812 1.73113 9.50042 1.95059 9.50042 2.22126V3.079H10.3582C10.6291 3.079 10.8483 3.29846 10.8483 3.56914C10.8483 3.83981 10.6291 4.05927 10.3582 4.05927Z" fill="white"/>
</svg>
