<svg width="19" height="16" viewBox="0 0 19 16" fill="none" xmlns="http://www.w3.org/2000/svg">
<path d="M0 1.36328V5.11328L9.5 8.86328L19 5.11328V1.36328C19 1.11464 18.8999 0.876184 18.7218 0.700369C18.5436 0.524553 18.302 0.425781 18.05 0.425781H0.950001C0.698044 0.425781 0.456408 0.524553 0.278248 0.700369C0.100088 0.876184 0 1.11464 0 1.36328ZM19 7.13266V14.4883C19 14.7369 18.8999 14.9754 18.7218 15.1512C18.5436 15.327 18.302 15.4258 18.05 15.4258H0.950001C0.698044 15.4258 0.456408 15.327 0.278248 15.1512C0.100088 14.9754 0 14.7369 0 14.4883V7.13266L9.5 10.8827L19 7.13266Z" fill="#01C9A7"/>
</svg>
