<svg width="135" height="35" viewBox="0 0 135 35" fill="none" xmlns="http://www.w3.org/2000/svg">
<path d="M99.7679 13.9941L101 6.40408C94.2654 5.13908 80.0083 4.88607 76.8547 13.9941C74.473 18.7379 71.5329 29.269 78.8257 33.4435C82.4393 34.2341 90.7997 35.341 95.3331 33.4435L98.7824 18.7379H91.1446L90.1591 27.5138C86.7919 28.0673 80.4518 27.6561 82.0286 21.5841C82.6035 16.8404 86.9562 8.68108 99.7679 13.9941Z" fill="#004896"/>
<path d="M104.449 5.69251L98.7824 34.6295H112.333L114.304 27.5138H107.406L112.333 5.69251H104.449Z" fill="#004896"/>
<path d="M135 5.69251L134.014 12.3338C130.072 11.4641 123.371 11.1004 128.101 16.6032C130.976 18.2635 136.183 22.7701 134.014 27.5138C132.536 30.6763 126.722 36.527 115.29 34.6295L117.014 27.5138H122.681C125.145 26.8023 128.101 25.1419 122.681 23.0072C119.396 20.7144 114.32 13.8043 122.204 7.35283C123.205 6.40408 125.933 5.12326 135 5.69251Z" fill="#004896"/>
<path d="M20.1876 0C13.6996 2.68813 1.41357 10.1991 4.17301 18.7379C4.74792 21.3469 8.55862 26.7548 19.2022 27.5138C32.5066 28.4626 43.1009 21.8213 46.5502 15.4172H33.2457L35.4631 5.69251H72.9127L66.9996 34.6295H56.1589L58.8691 21.5841C52.1348 29.7276 32.1124 42.5515 5.89773 28.6998C-0.836661 23.6397 -7.40683 10.8158 20.1876 0Z" fill="#F7BC17"/>
</svg>
