<svg width="27" height="27" viewBox="0 0 27 27" fill="none" xmlns="http://www.w3.org/2000/svg">
<path d="M21.2143 0H5.78571C2.59035 0 0 2.59035 0 5.78571V21.2143C0 24.4096 2.59035 27 5.78571 27H21.2143C24.4096 27 27 24.4096 27 21.2143V5.78571C27 2.59035 24.4096 0 21.2143 0Z" fill="url(#paint0_radial_1_12280)"/>
<path d="M21.2143 0H5.78571C2.59035 0 0 2.59035 0 5.78571V21.2143C0 24.4096 2.59035 27 5.78571 27H21.2143C24.4096 27 27 24.4096 27 21.2143V5.78571C27 2.59035 24.4096 0 21.2143 0Z" fill="url(#paint1_radial_1_12280)"/>
<path d="M21.2143 0H5.78571C2.59035 0 0 2.59035 0 5.78571V21.2143C0 24.4096 2.59035 27 5.78571 27H21.2143C24.4096 27 27 24.4096 27 21.2143V5.78571C27 2.59035 24.4096 0 21.2143 0Z" fill="url(#paint2_radial_1_12280)"/>
<path fill-rule="evenodd" clip-rule="evenodd" d="M4.48803 7.01648C3.85742 8.25408 3.85742 9.87428 3.85742 13.1146V13.886C3.85742 17.1263 3.85742 18.7465 4.48803 19.984C5.04272 21.0727 5.92782 21.9578 7.01648 22.5125C8.25408 23.1431 9.87428 23.1431 13.1146 23.1431H13.886C17.1263 23.1431 18.7465 23.1431 19.984 22.5125C21.0727 21.9578 21.9578 21.0727 22.5125 19.984C23.1431 18.7465 23.1431 17.1263 23.1431 13.886V13.1146C23.1431 9.87428 23.1431 8.25408 22.5125 7.01648C21.9578 5.92782 21.0727 5.04272 19.984 4.48803C18.7465 3.85742 17.1263 3.85742 13.886 3.85742H13.1146C9.87428 3.85742 8.25408 3.85742 7.01648 4.48803C5.92782 5.04272 5.04272 5.92782 4.48803 7.01648ZM13.886 5.78599H13.1146C11.4626 5.78599 10.3396 5.7875 9.47159 5.85841C8.62601 5.92749 8.19362 6.05271 7.89199 6.20639C7.16626 6.5762 6.5762 7.16626 6.20639 7.89199C6.05271 8.19362 5.92749 8.62601 5.85841 9.47159C5.7875 10.3396 5.78599 11.4626 5.78599 13.1146V13.886C5.78599 15.538 5.7875 16.6609 5.85841 17.529C5.92749 18.3745 6.05271 18.8069 6.20639 19.1086C6.5762 19.8343 7.16626 20.4243 7.89199 20.7941C8.19362 20.9478 8.62601 21.0731 9.47159 21.1421C10.3396 21.213 11.4626 21.2146 13.1146 21.2146H13.886C15.538 21.2146 16.6609 21.213 17.529 21.1421C18.3745 21.0731 18.8069 20.9478 19.1086 20.7941C19.8343 20.4243 20.4243 19.8343 20.7941 19.1086C20.9478 18.8069 21.0731 18.3745 21.1421 17.529C21.213 16.6609 21.2146 15.538 21.2146 13.886V13.1146C21.2146 11.4626 21.213 10.3396 21.1421 9.47159C21.0731 8.62601 20.9478 8.19362 20.7941 7.89199C20.4243 7.16626 19.8343 6.5762 19.1086 6.20639C18.8069 6.05271 18.3745 5.92749 17.529 5.85841C16.6609 5.7875 15.538 5.78599 13.886 5.78599ZM20.2501 8.19643C20.2501 8.99524 19.6025 9.64286 18.8037 9.64286C18.0049 9.64286 17.3572 8.99524 17.3572 8.19643C17.3572 7.39759 18.0049 6.75 18.8037 6.75C19.6025 6.75 20.2501 7.39759 20.2501 8.19643ZM13.5001 18.3216C16.1629 18.3216 18.3216 16.1629 18.3216 13.5001C18.3216 10.8374 16.1629 8.67871 13.5001 8.67871C10.8374 8.67871 8.67871 10.8374 8.67871 13.5001C8.67871 16.1629 10.8374 18.3216 13.5001 18.3216ZM13.5001 16.393C15.0979 16.393 16.393 15.0979 16.393 13.5001C16.393 11.9024 15.0979 10.6073 13.5001 10.6073C11.9024 10.6073 10.6073 11.9024 10.6073 13.5001C10.6073 15.0979 11.9024 16.393 13.5001 16.393Z" fill="#FDFDFD"/>
<defs>
<radialGradient id="paint0_radial_1_12280" cx="0" cy="0" r="1" gradientUnits="userSpaceOnUse" gradientTransform="translate(9.64286 20.25) rotate(-55.3758) scale(24.6082)">
<stop stop-color="#B13589"/>
<stop offset="0.79309" stop-color="#C62F94"/>
<stop offset="1" stop-color="#8A3AC8"/>
</radialGradient>
<radialGradient id="paint1_radial_1_12280" cx="0" cy="0" r="1" gradientUnits="userSpaceOnUse" gradientTransform="translate(8.67857 27.9643) rotate(-65.1363) scale(21.7873)">
<stop stop-color="#E0E8B7"/>
<stop offset="0.444662" stop-color="#FB8A2E"/>
<stop offset="0.71474" stop-color="#E2425C"/>
<stop offset="1" stop-color="#E2425C" stop-opacity="0"/>
</radialGradient>
<radialGradient id="paint2_radial_1_12280" cx="0" cy="0" r="1" gradientUnits="userSpaceOnUse" gradientTransform="translate(-1.44643 0.964286) rotate(-8.1301) scale(37.5019 8.02128)">
<stop offset="0.156701" stop-color="#406ADC"/>
<stop offset="0.467799" stop-color="#6A45BE"/>
<stop offset="1" stop-color="#6A45BE" stop-opacity="0"/>
</radialGradient>
</defs>
</svg>
