<svg width="15" height="18" viewBox="0 0 15 18" fill="none" xmlns="http://www.w3.org/2000/svg">
<path fill-rule="evenodd" clip-rule="evenodd" d="M12.5625 7.63919V5.9559C12.5625 2.9017 10.2959 0.425781 7.5 0.425781C4.70407 0.425781 2.4375 2.9017 2.4375 5.9559V7.63919C1.6014 7.70743 1.05697 7.87956 0.659025 8.31435C0 9.03425 0 10.1929 0 12.5101C0 14.8274 0 15.986 0.659025 16.7059C1.31805 17.4258 2.3787 17.4258 4.5 17.4258H10.5C12.6213 17.4258 13.682 17.4258 14.341 16.7059C15 15.986 15 14.8274 15 12.5101C15 10.1929 15 9.03425 14.341 8.31435C13.943 7.87956 13.3986 7.70743 12.5625 7.63919ZM11.4375 5.9559C11.4375 3.58042 9.67462 1.6547 7.5 1.6547C5.32538 1.6547 3.5625 3.58042 3.5625 5.9559V7.59741C3.84975 7.59446 4.16138 7.59446 4.5 7.59446H10.5C10.8386 7.59446 11.1502 7.59446 11.4375 7.59741V5.9559ZM10.5 13.3294C10.0858 13.3294 9.75 12.9626 9.75 12.5101C9.75 12.0576 10.0858 11.6908 10.5 11.6908C10.9142 11.6908 11.25 12.0576 11.25 12.5101C11.25 12.9626 10.9142 13.3294 10.5 13.3294ZM7.5 13.3294C7.08578 13.3294 6.75 12.9626 6.75 12.5101C6.75 12.0576 7.08578 11.6908 7.5 11.6908C7.91423 11.6908 8.25 12.0576 8.25 12.5101C8.25 12.9626 7.91423 13.3294 7.5 13.3294ZM3.75 12.5101C3.75 12.9626 4.08577 13.3294 4.5 13.3294C4.91422 13.3294 5.25 12.9626 5.25 12.5101C5.25 12.0576 4.91422 11.6908 4.5 11.6908C4.08577 11.6908 3.75 12.0576 3.75 12.5101Z" fill="#01C9A7"/>
</svg>
