<svg width="16" height="14" viewBox="0 0 16 14" fill="none" xmlns="http://www.w3.org/2000/svg">
<path d="M12.9952 9.78223H4.08995L5.96697 0.232717C5.97331 0.200468 5.96652 0.169834 5.96646 0.138184H4.98631H1.38271C1.11204 0.138184 0.892578 0.357644 0.892578 0.62832C0.892578 0.898995 1.11204 1.11846 1.38271 1.11846H4.79362L3.01299 10.1778C2.98475 10.3217 3.02232 10.4705 3.11542 10.5837C3.20852 10.6969 3.34757 10.7625 3.49403 10.7625H12.9952C13.2659 10.7625 13.4853 10.543 13.4853 10.2724C13.4853 10.0017 13.2659 9.78223 12.9952 9.78223Z" fill="#00997F"/>
<path d="M9.77617 13.8619C10.3176 13.8619 10.7564 13.423 10.7564 12.8816C10.7564 12.3402 10.3176 11.9014 9.77617 11.9014C9.23478 11.9014 8.7959 12.3402 8.7959 12.8816C8.7959 13.423 9.23478 13.8619 9.77617 13.8619Z" fill="#00997F"/>
<path d="M6.13945 13.8619C6.68084 13.8619 7.11972 13.423 7.11972 12.8816C7.11972 12.3402 6.68084 11.9014 6.13945 11.9014C5.59806 11.9014 5.15918 12.3402 5.15918 12.8816C5.15918 13.423 5.59806 13.8619 6.13945 13.8619Z" fill="#00997F"/>
<path d="M5.48641 0.138184L4.1377 7.00009H11.6925L15.107 0.138184H5.48641ZM10.5125 4.05927H9.65472V4.91701C9.65472 5.18769 9.4355 5.40715 9.16458 5.40715C8.89367 5.40715 8.67445 5.18769 8.67445 4.91701V4.05927H7.81671C7.54579 4.05927 7.32657 3.83981 7.32657 3.56914C7.32657 3.29846 7.54579 3.079 7.81671 3.079H8.67445V2.22126C8.67445 1.95059 8.89367 1.73113 9.16458 1.73113C9.4355 1.73113 9.65472 1.95059 9.65472 2.22126V3.079H10.5125C10.7834 3.079 11.0026 3.29846 11.0026 3.56914C11.0026 3.83981 10.7834 4.05927 10.5125 4.05927Z" fill="#00997F"/>
</svg>
