<svg width="24" height="28" viewBox="0 0 24 28" fill="none" xmlns="http://www.w3.org/2000/svg">
<path d="M10.6586 10.6587C8.98998 10.4284 7.29084 10.7138 5.78905 11.4767C4.28726 12.2395 3.05464 13.4434 2.2565 14.9267C1.45836 16.41 1.13287 18.102 1.32367 19.7756C1.51448 21.4492 2.21245 23.0244 3.324 24.29C4.43554 25.5556 5.9075 26.4511 7.54246 26.8564C9.17743 27.2616 10.8972 27.1572 12.4712 26.5573C14.0451 25.9573 15.398 24.8904 16.3483 23.4996C17.2987 22.1089 17.8011 20.4608 17.7881 18.7764V9.74103C19.5993 11.0367 21.773 11.7283 23.9999 11.7175V7.27042C22.3524 7.27042 20.7724 6.61596 19.6075 5.45102C18.4425 4.28607 17.7881 2.70607 17.7881 1.05859H13.2704V18.847C13.2742 19.6537 13.0219 20.4409 12.55 21.0951C12.078 21.7494 11.4106 22.237 10.6438 22.4878C9.87709 22.7387 9.05053 22.7398 8.28311 22.491C7.5157 22.2422 6.84701 21.7563 6.37327 21.1034C5.89954 20.4504 5.64519 19.6639 5.64683 18.8572C5.64848 18.0505 5.90603 17.2651 6.38243 16.614C6.85882 15.963 7.52949 15.4798 8.29791 15.2342C9.06634 14.9885 9.89288 14.993 10.6586 15.247V10.6587Z" fill="#FF0055"/>
<path d="M9.38809 9.60009C7.71947 9.36979 6.02033 9.65522 4.51854 10.4181C3.01675 11.1809 1.78413 12.3848 0.985995 13.8681C0.187855 15.3514 -0.13764 17.0434 0.053164 18.717C0.243968 20.3906 0.941947 21.9658 2.05349 23.2314C3.16504 24.497 4.63699 25.3925 6.27196 25.7978C7.90692 26.203 9.6267 26.0987 11.2007 25.4987C12.7746 24.8987 14.1275 23.8318 15.0778 22.441C16.0282 21.0503 16.5305 19.4022 16.5176 17.7178V8.68244C18.3288 9.97812 20.5025 10.6697 22.7294 10.6589V6.21183C21.0819 6.21183 19.5019 5.55737 18.337 4.39242C17.172 3.22748 16.5176 1.64748 16.5176 0H11.9999V17.7884C12.0037 18.5951 11.7514 19.3823 11.2794 20.0365C10.8075 20.6908 10.1401 21.1784 9.37332 21.4292C8.60658 21.6801 7.78002 21.6812 7.01261 21.4324C6.24519 21.1836 5.5765 20.6978 5.10277 20.0448C4.62903 19.3918 4.37468 18.6053 4.37633 17.7986C4.37797 16.9919 4.63553 16.2065 5.11192 15.5554C5.58832 14.9044 6.25899 14.4212 7.02741 14.1756C7.79583 13.9299 8.62237 13.9344 9.38809 14.1884V9.60009Z" fill="#00EEEE"/>
</svg>
