<svg width="20" height="20" viewBox="0 0 20 20" fill="none" xmlns="http://www.w3.org/2000/svg">
<path d="M10.8327 12.2916H1.66602C1.32435 12.2916 1.04102 12.0083 1.04102 11.6666V6.34992C1.04102 6.08325 1.20767 5.8499 1.44934 5.75823C1.69934 5.66656 1.97436 5.74159 2.14102 5.94159C2.64936 6.54992 3.44102 6.89158 4.22435 6.86658C4.89102 6.84991 5.50767 6.59993 5.97433 6.15826C6.191 5.97493 6.36601 5.75825 6.49934 5.51658C6.75767 5.07491 6.88268 4.59157 6.87435 4.0999C6.85768 3.33324 6.52437 2.63324 5.9577 2.12491C5.7577 1.94991 5.69102 1.67489 5.78268 1.43323C5.87435 1.19156 6.10769 1.0249 6.36603 1.0249H12.4993C12.841 1.0249 13.1243 1.30824 13.1243 1.6499V9.98324C13.1243 11.2666 12.0993 12.2916 10.8327 12.2916ZM2.29102 11.0416H10.8327C11.4077 11.0416 11.8743 10.5749 11.8743 9.99992V2.29159H7.65768C7.94935 2.83325 8.10768 3.4416 8.12435 4.07493C8.14102 4.79993 7.95767 5.51658 7.591 6.14158C7.391 6.49991 7.11601 6.84159 6.81601 7.09159C6.14934 7.72493 5.23267 8.09992 4.25767 8.12492C3.55767 8.14992 2.88269 7.97492 2.29936 7.65825V11.0416H2.29102Z" fill="#00AE30"/>
<path d="M15.8327 17.2915H14.9993C14.6577 17.2915 14.3743 17.0082 14.3743 16.6665C14.3743 16.0915 13.9077 15.6248 13.3327 15.6248C12.7577 15.6248 12.291 16.0915 12.291 16.6665C12.291 17.0082 12.0077 17.2915 11.666 17.2915H8.33268C7.99102 17.2915 7.70768 17.0082 7.70768 16.6665C7.70768 16.0915 7.24102 15.6248 6.66602 15.6248C6.09102 15.6248 5.62435 16.0915 5.62435 16.6665C5.62435 17.0082 5.34102 17.2915 4.99935 17.2915H4.16602C2.44102 17.2915 1.04102 15.8915 1.04102 14.1665V11.6665C1.04102 11.3248 1.32435 11.0415 1.66602 11.0415H10.8327C11.4077 11.0415 11.8743 10.5748 11.8743 9.99984V4.1665C11.8743 3.82484 12.1577 3.5415 12.4993 3.5415H14.0327C14.8577 3.5415 15.616 3.98318 16.0243 4.69985L17.4494 7.19151C17.5577 7.38317 17.5577 7.62484 17.4494 7.81651C17.341 8.00817 17.1327 8.12484 16.9077 8.12484H15.8327C15.716 8.12484 15.6243 8.2165 15.6243 8.33317V10.8332C15.6243 10.9498 15.716 11.0415 15.8327 11.0415H18.3327C18.6744 11.0415 18.9577 11.3248 18.9577 11.6665V14.1665C18.9577 15.8915 17.5577 17.2915 15.8327 17.2915ZM15.541 16.0415H15.8327C16.866 16.0415 17.7077 15.1998 17.7077 14.1665V12.2915H15.8327C15.0327 12.2915 14.3743 11.6332 14.3743 10.8332V8.33317C14.3743 7.53317 15.0243 6.87484 15.8327 6.87484L14.941 5.31651C14.7577 4.99151 14.4077 4.7915 14.0327 4.7915H13.1243V9.99984C13.1243 11.2665 12.0993 12.2915 10.8327 12.2915H2.29102V14.1665C2.29102 15.1998 3.13268 16.0415 4.16602 16.0415H4.45766C4.73266 15.0832 5.61602 14.3748 6.66602 14.3748C7.71602 14.3748 8.59937 15.0832 8.87437 16.0415H11.1327C11.4077 15.0832 12.291 14.3748 13.341 14.3748C14.391 14.3748 15.266 15.0832 15.541 16.0415Z" fill="#00AE30"/>
<path d="M6.66667 18.9583C5.4 18.9583 4.375 17.9333 4.375 16.6667C4.375 15.4 5.4 14.375 6.66667 14.375C7.93333 14.375 8.95833 15.4 8.95833 16.6667C8.95833 17.9333 7.93333 18.9583 6.66667 18.9583ZM6.66667 15.625C6.09167 15.625 5.625 16.0917 5.625 16.6667C5.625 17.2417 6.09167 17.7083 6.66667 17.7083C7.24167 17.7083 7.70833 17.2417 7.70833 16.6667C7.70833 16.0917 7.24167 15.625 6.66667 15.625Z" fill="#00AE30"/>
<path d="M13.3327 18.9583C12.066 18.9583 11.041 17.9333 11.041 16.6667C11.041 15.4 12.066 14.375 13.3327 14.375C14.5993 14.375 15.6243 15.4 15.6243 16.6667C15.6243 17.9333 14.5993 18.9583 13.3327 18.9583ZM13.3327 15.625C12.7577 15.625 12.291 16.0917 12.291 16.6667C12.291 17.2417 12.7577 17.7083 13.3327 17.7083C13.9077 17.7083 14.3743 17.2417 14.3743 16.6667C14.3743 16.0917 13.9077 15.625 13.3327 15.625Z" fill="#00AE30"/>
<path d="M18.3333 12.2917H15.8333C15.0333 12.2917 14.375 11.6333 14.375 10.8333V8.33333C14.375 7.53333 15.0333 6.875 15.8333 6.875H16.9083C17.1333 6.875 17.3417 6.99167 17.45 7.19167L18.875 9.69167C18.925 9.78334 18.9583 9.89167 18.9583 10V11.6667C18.9583 12.0083 18.675 12.2917 18.3333 12.2917ZM15.8333 8.125C15.7167 8.125 15.625 8.21667 15.625 8.33333V10.8333C15.625 10.95 15.7167 11.0417 15.8333 11.0417H17.7083V10.1667L16.5416 8.125H15.8333Z" fill="#00AE30"/>
<path d="M4.15801 8.12516C3.00801 8.12516 1.92468 7.62514 1.19135 6.75014C1.07468 6.62514 0.949696 6.45014 0.841363 6.28348C0.449696 5.69181 0.233029 4.99182 0.216363 4.25848C0.183029 3.04182 0.699706 1.90014 1.63304 1.12514C2.34137 0.541809 3.19133 0.225163 4.09133 0.208496C5.07467 0.216829 6.05804 0.541831 6.79137 1.20016C7.62471 1.9335 8.10803 2.95851 8.13303 4.07517C8.1497 4.80017 7.96635 5.51683 7.59968 6.14183C7.39968 6.50016 7.12469 6.84184 6.82469 7.09184C6.15802 7.72517 5.24135 8.10016 4.26635 8.12516C4.22468 8.12516 4.19135 8.12516 4.15801 8.12516ZM4.15801 1.4585C4.14135 1.4585 4.12468 1.4585 4.10801 1.4585C3.49968 1.46683 2.91633 1.69184 2.42467 2.09184C1.79133 2.61684 1.44135 3.40017 1.45802 4.22517C1.47469 4.72517 1.61636 5.20018 1.88303 5.59185C1.95803 5.70851 2.03301 5.81681 2.12468 5.91681C2.65801 6.55014 3.44969 6.88349 4.22469 6.86682C4.89136 6.85015 5.50801 6.60017 5.97467 6.15851C6.19134 5.97517 6.36634 5.75849 6.49968 5.51683C6.75801 5.07516 6.88302 4.59181 6.87469 4.10015C6.85802 3.33348 6.52471 2.63349 5.95804 2.12515C5.45804 1.70015 4.82468 1.4585 4.15801 1.4585Z" fill="#00AE30"/>
<path d="M3.70807 5.6249C3.54973 5.6249 3.39972 5.56655 3.27472 5.44988L2.43304 4.64991C2.18304 4.40825 2.17475 4.01658 2.41641 3.76658C2.65808 3.51658 3.04974 3.50823 3.29974 3.7499L3.70807 4.14154L5.01641 2.87491C5.26641 2.63324 5.65807 2.64154 5.89974 2.89154C6.14141 3.14154 6.13306 3.53326 5.88306 3.77492L4.14137 5.45822C4.01637 5.56655 3.85807 5.6249 3.70807 5.6249Z" fill="#00AE30"/>
</svg>
